<?xml version="1.0" encoding="utf-8"?>
<!-- Generator: Adobe Illustrator 26.0.2, SVG Export Plug-In . SVG Version: 6.00 Build 0)  -->
<svg version="1.1" xmlns="http://www.w3.org/2000/svg" xmlns:xlink="http://www.w3.org/1999/xlink" x="0px" y="0px"
	 viewBox="0 0 716.59 78.43" style="enable-background:new 0 0 716.59 78.43;" xml:space="preserve">
<style type="text/css">
	.st0{fill:#FFFFFF;}
	.st1{display:none;}
	.st2{display:inline;}
	.st3{fill:#603913;}
</style>
<g id="Layer_1">
	<g>
		<path d="M49.06,0.1H0v16.65h49.06V0.1z M3.07,4.32c-0.71,0-1.28-0.57-1.28-1.28c0-0.71,0.57-1.28,1.28-1.28
			c0.71,0,1.28,0.57,1.28,1.28C4.35,3.75,3.78,4.32,3.07,4.32z M45.92,4.32c-0.71,0-1.28-0.57-1.28-1.28c0-0.71,0.57-1.28,1.28-1.28
			c0.71,0,1.28,0.57,1.28,1.28C47.2,3.75,46.63,4.32,45.92,4.32z"/>
		<path d="M258.75,16.75h52.66V0.1h-52.66V16.75z M308.26,1.76c0.71,0,1.28,0.57,1.28,1.28c0,0.71-0.57,1.28-1.28,1.28
			c-0.71,0-1.28-0.57-1.28-1.28C306.98,2.33,307.55,1.76,308.26,1.76z M261.88,1.76c0.71,0,1.28,0.57,1.28,1.28
			c0,0.71-0.57,1.28-1.28,1.28s-1.28-0.57-1.28-1.28C260.6,2.33,261.18,1.76,261.88,1.76z"/>
		<path d="M377.72,0.05h-39.78v16.67h39.78V0.05z M341.49,4.32c-0.71,0-1.28-0.57-1.28-1.28c0-0.71,0.57-1.28,1.28-1.28
			c0.71,0,1.28,0.57,1.28,1.28C342.77,3.75,342.2,4.32,341.49,4.32z M374.34,4.32c-0.71,0-1.28-0.57-1.28-1.28
			c0-0.71,0.57-1.28,1.28-1.28c0.71,0,1.28,0.57,1.28,1.28C375.62,3.75,375.05,4.32,374.34,4.32z"/>
		<path d="M545.91,0.08H501.6v16.65h44.31V0.08z M504.64,4.32c-0.71,0-1.28-0.57-1.28-1.28c0-0.71,0.57-1.28,1.28-1.28
			s1.28,0.57,1.28,1.28C505.92,3.75,505.35,4.32,504.64,4.32z M542.99,4.32c-0.71,0-1.28-0.57-1.28-1.28c0-0.71,0.57-1.28,1.28-1.28
			c0.71,0,1.28,0.57,1.28,1.28C544.27,3.75,543.69,4.32,542.99,4.32z"/>
		<path d="M381.65,16.72h34.67V0.05h-34.67V16.72z M413.29,1.76c0.71,0,1.28,0.57,1.28,1.28c0,0.71-0.57,1.28-1.28,1.28
			s-1.28-0.57-1.28-1.28C412.01,2.33,412.58,1.76,413.29,1.76z M385.09,1.76c0.71,0,1.28,0.57,1.28,1.28c0,0.71-0.57,1.28-1.28,1.28
			s-1.28-0.57-1.28-1.28C383.8,2.33,384.38,1.76,385.09,1.76z"/>
		<path d="M258.75,78.43h52.66V61.69h-52.66V78.43z M308.26,63.49c0.71,0,1.28,0.57,1.28,1.28s-0.57,1.28-1.28,1.28
			c-0.71,0-1.28-0.57-1.28-1.28S307.55,63.49,308.26,63.49z M261.88,63.49c0.71,0,1.28,0.57,1.28,1.28s-0.57,1.28-1.28,1.28
			s-1.28-0.57-1.28-1.28S261.18,63.49,261.88,63.49z"/>
		<path d="M501.6,78.43h50.77V61.69H501.6V78.43z M549.05,63.49c0.71,0,1.28,0.57,1.28,1.28s-0.57,1.28-1.28,1.28
			s-1.28-0.57-1.28-1.28S548.34,63.49,549.05,63.49z M504.64,63.49c0.71,0,1.28,0.57,1.28,1.28s-0.57,1.28-1.28,1.28
			s-1.28-0.57-1.28-1.28S503.93,63.49,504.64,63.49z"/>
		<path d="M179.55,16.75h49.03V0.08h-49.03V16.75z M225.39,1.76c0.71,0,1.28,0.57,1.28,1.28c0,0.71-0.57,1.28-1.28,1.28
			s-1.28-0.57-1.28-1.28C224.1,2.33,224.68,1.76,225.39,1.76z M182.7,1.76c0.71,0,1.28,0.57,1.28,1.28c0,0.71-0.57,1.28-1.28,1.28
			s-1.28-0.57-1.28-1.28C181.41,2.33,181.99,1.76,182.7,1.76z"/>
		<path d="M179.55,78.43h49.03V61.69h-49.03V78.43z M225.39,63.49c0.71,0,1.28,0.57,1.28,1.28s-0.57,1.28-1.28,1.28
			s-1.28-0.57-1.28-1.28S224.68,63.49,225.39,63.49z M182.7,63.49c0.71,0,1.28,0.57,1.28,1.28s-0.57,1.28-1.28,1.28
			s-1.28-0.57-1.28-1.28S181.99,63.49,182.7,63.49z"/>
		<path d="M101.91,18.56H80.43v41.32h21.48V18.56z M84.01,23.34c-0.71,0-1.28-0.57-1.28-1.28c0-0.71,0.57-1.28,1.28-1.28
			c0.71,0,1.28,0.57,1.28,1.28C85.29,22.77,84.71,23.34,84.01,23.34z M97.56,23.34c-0.71,0-1.28-0.57-1.28-1.28
			c0-0.71,0.57-1.28,1.28-1.28s1.28,0.57,1.28,1.28C98.84,22.77,98.26,23.34,97.56,23.34z"/>
		<path d="M122.28,59.88h21.48V18.56h-21.48V59.88z M140.49,20.78c0.71,0,1.28,0.57,1.28,1.28c0,0.71-0.57,1.28-1.28,1.28
			c-0.71,0-1.28-0.57-1.28-1.28C139.2,21.35,139.78,20.78,140.49,20.78z M125.95,20.78c0.71,0,1.28,0.57,1.28,1.28
			c0,0.71-0.57,1.28-1.28,1.28s-1.28-0.57-1.28-1.28C124.67,21.35,125.24,20.78,125.95,20.78z"/>
		<path d="M422.59,78.43h42.64V61.69h-42.64V78.43z M462.32,63.49c0.71,0,1.28,0.57,1.28,1.28s-0.57,1.28-1.28,1.28
			c-0.71,0-1.28-0.57-1.28-1.28S461.62,63.49,462.32,63.49z M425.97,63.49c0.71,0,1.28,0.57,1.28,1.28s-0.57,1.28-1.28,1.28
			c-0.71,0-1.28-0.57-1.28-1.28S425.26,63.49,425.97,63.49z"/>
		<path d="M455.53,18.56h-21.48v41.32h21.48V44.02h16.16V32.31h-16.16V18.56z M437.49,23.34c-0.71,0-1.28-0.57-1.28-1.28
			c0-0.71,0.57-1.28,1.28-1.28c0.71,0,1.28,0.57,1.28,1.28C438.77,22.77,438.2,23.34,437.49,23.34z M452.08,23.34
			c-0.71,0-1.28-0.57-1.28-1.28c0-0.71,0.57-1.28,1.28-1.28c0.71,0,1.28,0.57,1.28,1.28C453.37,22.77,452.79,23.34,452.08,23.34z"/>
		<path d="M554.19,78.43h17.66v-36.7h-17.66V78.43z M569.18,44.04c0.71,0,1.28,0.57,1.28,1.28c0,0.71-0.57,1.28-1.28,1.28
			c-0.71,0-1.28-0.57-1.28-1.28C567.9,44.61,568.48,44.04,569.18,44.04z M557.46,44.04c0.71,0,1.28,0.57,1.28,1.28
			c0,0.71-0.57,1.28-1.28,1.28s-1.28-0.57-1.28-1.28C556.18,44.61,556.75,44.04,557.46,44.04z"/>
		<path d="M191.01,18.56v41.32h21.48V18.56H191.01z M194.08,23.34c-0.71,0-1.28-0.57-1.28-1.28c0-0.71,0.57-1.28,1.28-1.28
			c0.71,0,1.28,0.57,1.28,1.28C195.36,22.77,194.79,23.34,194.08,23.34z M209.63,23.34c-0.71,0-1.28-0.57-1.28-1.28
			c0-0.71,0.57-1.28,1.28-1.28s1.28,0.57,1.28,1.28C210.91,22.77,210.33,23.34,209.63,23.34z"/>
		<path d="M371,59.88V18.56h-21.48v41.32H371z M367.47,20.78c0.71,0,1.28,0.57,1.28,1.28c0,0.71-0.57,1.28-1.28,1.28
			s-1.28-0.57-1.28-1.28C366.19,21.35,366.76,20.78,367.47,20.78z M352.87,20.78c0.71,0,1.28,0.57,1.28,1.28
			c0,0.71-0.57,1.28-1.28,1.28s-1.28-0.57-1.28-1.28C351.59,21.35,352.17,20.78,352.87,20.78z"/>
		<path d="M388.68,59.88h17.82V18.56h-17.82V59.88z M403.11,20.78c0.71,0,1.28,0.57,1.28,1.28c0,0.71-0.57,1.28-1.28,1.28
			c-0.71,0-1.28-0.57-1.28-1.28C401.83,21.35,402.4,20.78,403.11,20.78z M392.29,20.78c0.71,0,1.28,0.57,1.28,1.28
			c0,0.71-0.57,1.28-1.28,1.28s-1.28-0.57-1.28-1.28C391.01,21.35,391.58,20.78,392.29,20.78z"/>
		<path d="M534.5,59.88V18.56h-21.48v41.32H534.5z M531.14,20.78c0.71,0,1.28,0.57,1.28,1.28c0,0.71-0.57,1.28-1.28,1.28
			c-0.71,0-1.28-0.57-1.28-1.28C529.85,21.35,530.43,20.78,531.14,20.78z M516.14,20.78c0.71,0,1.28,0.57,1.28,1.28
			c0,0.71-0.57,1.28-1.28,1.28s-1.28-0.57-1.28-1.28C514.86,21.35,515.44,20.78,516.14,20.78z"/>
		<path d="M122.28,61.69h-20.37v0l-21.48,0l21.48,16.75h20.37l21.48-16.75L122.28,61.69L122.28,61.69z M90.63,66.05
			c-0.71,0-1.28-0.57-1.28-1.28s0.57-1.28,1.28-1.28s1.28,0.57,1.28,1.28S91.34,66.05,90.63,66.05z M134.3,63.49
			c0.71,0,1.28,0.57,1.28,1.28s-0.57,1.28-1.28,1.28s-1.28-0.57-1.28-1.28S133.59,63.49,134.3,63.49z"/>
		<path d="M122.28,0.1h-20.37v0L80.43,16.75l21.48,0v0h20.37v0l21.48,0L122.28,0.1L122.28,0.1z M103.19,4.32
			c-0.71,0-1.28-0.57-1.28-1.28c0-0.71,0.57-1.28,1.28-1.28s1.28,0.57,1.28,1.28C104.48,3.75,103.9,4.32,103.19,4.32z M120.99,4.32
			c-0.71,0-1.28-0.57-1.28-1.28c0-0.71,0.57-1.28,1.28-1.28s1.28,0.57,1.28,1.28C122.28,3.75,121.7,4.32,120.99,4.32z"/>
		<path d="M50.92,16.75v15.56v5.94l21.91-5.94h0V16.75L50.92,0V16.75z M54.02,5.07c0.71,0,1.28,0.57,1.28,1.28
			c0,0.71-0.57,1.28-1.28,1.28c-0.71,0-1.28-0.57-1.28-1.28C52.73,5.64,53.31,5.07,54.02,5.07z"/>
		<path d="M473.51,16.72l21.92,0L473.51,0.05v0.02h-50.92v16.65L473.51,16.72L473.51,16.72z M426.04,4.32
			c-0.71,0-1.28-0.57-1.28-1.28c0-0.71,0.57-1.28,1.28-1.28c0.71,0,1.28,0.57,1.28,1.28C427.32,3.75,426.75,4.32,426.04,4.32z
			 M471.69,4.32c-0.71,0-1.28-0.57-1.28-1.28c0-0.71,0.57-1.28,1.28-1.28s1.28,0.57,1.28,1.28C472.97,3.75,472.4,4.32,471.69,4.32z"
			/>
		<path d="M495.42,18.56h-21.92v13.8v5.89l21.92-5.89V18.56z M476.85,23.33c-0.71,0-1.28-0.57-1.28-1.28s0.57-1.28,1.28-1.28
			c0.71,0,1.28,0.57,1.28,1.28S477.56,23.33,476.85,23.33z M492.42,23.33c-0.71,0-1.28-0.57-1.28-1.28s0.57-1.28,1.28-1.28
			c0.71,0,1.28,0.57,1.28,1.28S493.13,23.33,492.42,23.33z"/>
		<path d="M50.92,61.69v16.67l21.92-16.67V44.04l-21.92-5.79v5.79V61.69z M54.02,41.79c0.71,0,1.28,0.57,1.28,1.28
			c0,0.71-0.57,1.28-1.28,1.28c-0.71,0-1.28-0.57-1.28-1.28C52.73,42.37,53.31,41.79,54.02,41.79z"/>
		<path d="M473.51,44.02v34.34h21.93V44.02l-21.93-5.77V44.02z M476.85,42.07c0.71,0,1.28,0.57,1.28,1.28
			c0,0.71-0.57,1.28-1.28,1.28c-0.71,0-1.28-0.57-1.28-1.28C475.57,42.65,476.14,42.07,476.85,42.07z"/>
		<path d="M230.4,78.43l21.52-16.75V16.75L230.4,0.08V78.43z M234.11,6.15c0.71,0,1.28,0.57,1.28,1.28c0,0.71-0.57,1.28-1.28,1.28
			s-1.28-0.57-1.28-1.28C232.82,6.72,233.4,6.15,234.11,6.15z"/>
		<path d="M313.23,32.31h17.62V0.1h-17.62V32.31z M327.84,1.76c0.71,0,1.28,0.57,1.28,1.28c0,0.71-0.57,1.28-1.28,1.28
			s-1.28-0.57-1.28-1.28C326.56,2.33,327.13,1.76,327.84,1.76z M316.46,1.76c0.71,0,1.28,0.57,1.28,1.28c0,0.71-0.57,1.28-1.28,1.28
			c-0.71,0-1.28-0.57-1.28-1.28C315.17,2.33,315.75,1.76,316.46,1.76z"/>
		<path d="M313.23,78.43h17.62v-32h-17.62V78.43z M327.84,48.9c0.71,0,1.28,0.57,1.28,1.28c0,0.71-0.57,1.28-1.28,1.28
			s-1.28-0.57-1.28-1.28C326.56,49.48,327.13,48.9,327.84,48.9z M316.46,48.9c0.71,0,1.28,0.57,1.28,1.28
			c0,0.71-0.57,1.28-1.28,1.28c-0.71,0-1.28-0.57-1.28-1.28C315.17,49.48,315.75,48.9,316.46,48.9z"/>
		<path d="M270.39,18.56v41.32h21.48V46.44h16.57V31.09h-16.57V18.56H270.39z M273.35,23.34c-0.71,0-1.28-0.57-1.28-1.28
			c0-0.71,0.57-1.28,1.28-1.28c0.71,0,1.28,0.57,1.28,1.28C274.63,22.77,274.06,23.34,273.35,23.34z M288.9,23.34
			c-0.71,0-1.28-0.57-1.28-1.28c0-0.71,0.57-1.28,1.28-1.28s1.28,0.57,1.28,1.28C290.18,22.77,289.61,23.34,288.9,23.34z"/>
		<path d="M371,61.69h-21.48L371,78.43h17.68l17.82-16.75h-17.82H371z M359.12,66.05c-0.71,0-1.28-0.57-1.28-1.28
			s0.57-1.28,1.28-1.28s1.28,0.57,1.28,1.28S359.83,66.05,359.12,66.05z M397.36,63.49c0.71,0,1.28,0.57,1.28,1.28
			s-0.57,1.28-1.28,1.28s-1.28-0.57-1.28-1.28S396.65,63.49,397.36,63.49z"/>
		<path d="M602.5,18.56h-21.48v41.32h21.48V18.56z M584.6,23.34c-0.71,0-1.28-0.57-1.28-1.28c0-0.71,0.57-1.28,1.28-1.28
			s1.28,0.57,1.28,1.28C585.88,22.77,585.31,23.34,584.6,23.34z M598.15,23.34c-0.71,0-1.28-0.57-1.28-1.28
			c0-0.71,0.57-1.28,1.28-1.28c0.71,0,1.28,0.57,1.28,1.28C599.43,22.77,598.86,23.34,598.15,23.34z"/>
		<path d="M622.87,59.88h21.48V18.56h-21.48V59.88z M641.08,20.78c0.71,0,1.28,0.57,1.28,1.28c0,0.71-0.57,1.28-1.28,1.28
			s-1.28-0.57-1.28-1.28C639.8,21.35,640.37,20.78,641.08,20.78z M626.54,20.78c0.71,0,1.28,0.57,1.28,1.28
			c0,0.71-0.57,1.28-1.28,1.28s-1.28-0.57-1.28-1.28C625.26,21.35,625.83,20.78,626.54,20.78z"/>
		<path d="M622.87,61.69H602.5v0l-21.48,0l21.48,16.75h20.37l21.48-16.75L622.87,61.69L622.87,61.69z M591.22,66.05
			c-0.71,0-1.28-0.57-1.28-1.28s0.57-1.28,1.28-1.28s1.28,0.57,1.28,1.28S591.93,66.05,591.22,66.05z M634.89,63.49
			c0.71,0,1.28,0.57,1.28,1.28s-0.57,1.28-1.28,1.28s-1.28-0.57-1.28-1.28S634.18,63.49,634.89,63.49z"/>
		<path d="M602.5,16.75h20.37v0l21.48,0L622.87,0.1v0H602.5v0l-21.48,16.65L602.5,16.75L602.5,16.75z M621.59,1.76
			c0.71,0,1.28,0.57,1.28,1.28c0,0.71-0.57,1.28-1.28,1.28c-0.71,0-1.28-0.57-1.28-1.28C620.3,2.33,620.88,1.76,621.59,1.76z
			 M603.78,1.76c0.71,0,1.28,0.57,1.28,1.28c0,0.71-0.57,1.28-1.28,1.28s-1.28-0.57-1.28-1.28C602.5,2.33,603.08,1.76,603.78,1.76z"
			/>
		<path d="M674.74,18.56h-21.48v41.32h21.48V18.56z M656.83,23.34c-0.71,0-1.28-0.57-1.28-1.28c0-0.71,0.57-1.28,1.28-1.28
			c0.71,0,1.28,0.57,1.28,1.28C658.12,22.77,657.54,23.34,656.83,23.34z M670.38,23.34c-0.71,0-1.28-0.57-1.28-1.28
			c0-0.71,0.57-1.28,1.28-1.28s1.28,0.57,1.28,1.28C671.67,22.77,671.09,23.34,670.38,23.34z"/>
		<path d="M695.11,59.88h21.48V18.56h-21.48V59.88z M713.31,20.78c0.71,0,1.28,0.57,1.28,1.28c0,0.71-0.57,1.28-1.28,1.28
			s-1.28-0.57-1.28-1.28C712.03,21.35,712.61,20.78,713.31,20.78z M698.78,20.78c0.71,0,1.28,0.57,1.28,1.28
			c0,0.71-0.57,1.28-1.28,1.28c-0.71,0-1.28-0.57-1.28-1.28C697.49,21.35,698.07,20.78,698.78,20.78z"/>
		<path d="M695.11,61.69h-20.37v0l-21.48,0l21.48,16.75h20.37l21.48-16.75L695.11,61.69L695.11,61.69z M663.46,66.05
			c-0.71,0-1.28-0.57-1.28-1.28s0.57-1.28,1.28-1.28s1.28,0.57,1.28,1.28S664.17,66.05,663.46,66.05z M707.13,63.49
			c0.71,0,1.28,0.57,1.28,1.28s-0.57,1.28-1.28,1.28c-0.71,0-1.28-0.57-1.28-1.28S706.42,63.49,707.13,63.49z"/>
		<path d="M674.74,16.75h20.37v0l21.48,0L695.11,0.1v0h-20.37v0l-21.48,16.65L674.74,16.75L674.74,16.75z M693.82,1.76
			c0.71,0,1.28,0.57,1.28,1.28c0,0.71-0.57,1.28-1.28,1.28c-0.71,0-1.28-0.57-1.28-1.28C692.54,2.33,693.12,1.76,693.82,1.76z
			 M676.02,1.76c0.71,0,1.28,0.57,1.28,1.28c0,0.71-0.57,1.28-1.28,1.28c-0.71,0-1.28-0.57-1.28-1.28
			C674.74,2.33,675.31,1.76,676.02,1.76z"/>
		<path d="M0,78.36h49.06V61.69H0V78.36z M45.73,63.5c0.71,0,1.28,0.57,1.28,1.28s-0.57,1.28-1.28,1.28c-0.71,0-1.28-0.57-1.28-1.28
			S45.02,63.5,45.73,63.5z M3.07,63.5c0.71,0,1.28,0.57,1.28,1.28s-0.57,1.28-1.28,1.28c-0.71,0-1.28-0.57-1.28-1.28
			S2.36,63.5,3.07,63.5z"/>
		<path d="M32.94,18.56H11.46v41.31h21.48V44.04H49.1V32.31H32.94V18.56z M14.44,23.34c-0.71,0-1.28-0.57-1.28-1.28
			c0-0.71,0.57-1.28,1.28-1.28s1.28,0.57,1.28,1.28C15.72,22.77,15.14,23.34,14.44,23.34z M29.82,23.34c-0.71,0-1.28-0.57-1.28-1.28
			c0-0.71,0.57-1.28,1.28-1.28s1.28,0.57,1.28,1.28C31.11,22.77,30.53,23.34,29.82,23.34z"/>
	</g>
</g>
<g id="Layer_2">
</g>
</svg>
