<?xml version="1.0" encoding="utf-8"?>
<!-- Generator: Adobe Illustrator 26.0.2, SVG Export Plug-In . SVG Version: 6.00 Build 0)  -->
<svg version="1.1" id="Layer_1" xmlns="http://www.w3.org/2000/svg" xmlns:xlink="http://www.w3.org/1999/xlink" x="0px" y="0px"
	 viewBox="0 0 78.4 716.6" style="enable-background:new 0 0 78.4 716.6;" xml:space="preserve">
<g id="Layer_1_00000037692840645590618030000003798122491963468191_">
	<g>
		<path d="M0.1,667.5v49.1h16.6v-49.1H0.1z M4.3,713.5c0,0.7-0.6,1.3-1.3,1.3s-1.3-0.6-1.3-1.3c0-0.7,0.6-1.3,1.3-1.3
			S4.3,712.8,4.3,713.5z M4.3,670.7c0,0.7-0.6,1.3-1.3,1.3s-1.3-0.6-1.3-1.3c0-0.7,0.6-1.3,1.3-1.3S4.3,670,4.3,670.7z"/>
		<path d="M16.7,457.8v-52.7H0.1v52.7H16.7z M1.8,408.3c0-0.7,0.6-1.3,1.3-1.3s1.3,0.6,1.3,1.3s-0.6,1.3-1.3,1.3S1.8,409,1.8,408.3z
			 M1.8,454.7c0-0.7,0.6-1.3,1.3-1.3s1.3,0.6,1.3,1.3S3.7,456,3,456S1.8,455.4,1.8,454.7z"/>
		<path d="M0,338.9v39.8h16.7v-39.8H0z M4.3,375.1c0,0.7-0.6,1.3-1.3,1.3s-1.3-0.6-1.3-1.3s0.6-1.3,1.3-1.3S4.3,374.4,4.3,375.1z
			 M4.3,342.3c0,0.7-0.6,1.3-1.3,1.3s-1.3-0.6-1.3-1.3S2.3,341,3,341S4.3,341.5,4.3,342.3z"/>
		<path d="M0.1,170.7V215h16.6v-44.3L0.1,170.7L0.1,170.7z M4.3,212c0,0.7-0.6,1.3-1.3,1.3s-1.3-0.6-1.3-1.3s0.6-1.3,1.3-1.3
			S4.3,211.2,4.3,212z M4.3,173.6c0,0.7-0.6,1.3-1.3,1.3s-1.3-0.6-1.3-1.3s0.6-1.3,1.3-1.3S4.3,172.9,4.3,173.6z"/>
		<path d="M16.7,334.9v-34.7H0v34.7L16.7,334.9L16.7,334.9z M1.8,303.3c0-0.7,0.6-1.3,1.3-1.3s1.3,0.6,1.3,1.3s-0.6,1.3-1.3,1.3
			S1.8,304,1.8,303.3z M1.8,331.5c0-0.7,0.6-1.3,1.3-1.3s1.3,0.6,1.3,1.3s-0.6,1.3-1.3,1.3C2.3,332.8,1.8,332.2,1.8,331.5z"/>
		<path d="M78.4,457.8v-52.7H61.7v52.7H78.4z M63.5,408.3c0-0.7,0.6-1.3,1.3-1.3c0.7,0,1.3,0.6,1.3,1.3s-0.6,1.3-1.3,1.3
			C64.1,409.6,63.5,409,63.5,408.3z M63.5,454.7c0-0.7,0.6-1.3,1.3-1.3c0.7,0,1.3,0.6,1.3,1.3s-0.6,1.3-1.3,1.3
			C64.1,456,63.5,455.4,63.5,454.7z"/>
		<path d="M78.4,215v-50.8H61.7V215H78.4z M63.5,167.5c0-0.7,0.6-1.3,1.3-1.3c0.7,0,1.3,0.6,1.3,1.3s-0.6,1.3-1.3,1.3
			C64.1,168.8,63.5,168.3,63.5,167.5z M63.5,212c0-0.7,0.6-1.3,1.3-1.3c0.7,0,1.3,0.6,1.3,1.3s-0.6,1.3-1.3,1.3
			C64.1,213.2,63.5,212.7,63.5,212z"/>
		<path d="M16.7,537v-49H0.1v49H16.7z M1.8,491.2c0-0.7,0.6-1.3,1.3-1.3s1.3,0.6,1.3,1.3s-0.6,1.3-1.3,1.3
			C2.3,492.5,1.8,491.9,1.8,491.2z M1.8,533.9c0-0.7,0.6-1.3,1.3-1.3s1.3,0.6,1.3,1.3c0,0.7-0.6,1.3-1.3,1.3
			C2.3,535.2,1.8,534.6,1.8,533.9z"/>
		<path d="M78.4,537v-49H61.7v49H78.4z M63.5,491.2c0-0.7,0.6-1.3,1.3-1.3c0.7,0,1.3,0.6,1.3,1.3s-0.6,1.3-1.3,1.3
			C64.1,492.5,63.5,491.9,63.5,491.2z M63.5,533.9c0-0.7,0.6-1.3,1.3-1.3c0.7,0,1.3,0.6,1.3,1.3c0,0.7-0.6,1.3-1.3,1.3
			C64.1,535.2,63.5,534.6,63.5,533.9z"/>
		<path d="M18.6,614.7v21.5h41.3v-21.5H18.6z M23.3,632.6c0,0.7-0.6,1.3-1.3,1.3c-0.7,0-1.3-0.6-1.3-1.3c0-0.7,0.6-1.3,1.3-1.3
			S23.3,631.9,23.3,632.6z M23.3,619c0,0.7-0.6,1.3-1.3,1.3c-0.7,0-1.3-0.6-1.3-1.3c0-0.7,0.6-1.3,1.3-1.3S23.3,618.3,23.3,619z"/>
		<path d="M59.9,594.3v-21.5H18.6v21.5H59.9z M20.8,576.1c0-0.7,0.6-1.3,1.3-1.3c0.7,0,1.3,0.6,1.3,1.3c0,0.7-0.6,1.3-1.3,1.3
			C21.3,577.4,20.8,576.8,20.8,576.1z M20.8,590.6c0-0.7,0.6-1.3,1.3-1.3c0.7,0,1.3,0.6,1.3,1.3c0,0.7-0.6,1.3-1.3,1.3
			S20.8,591.4,20.8,590.6z"/>
		<path d="M78.4,294v-42.6H61.7V294L78.4,294L78.4,294z M63.5,254.3c0-0.7,0.6-1.3,1.3-1.3c0.7,0,1.3,0.6,1.3,1.3s-0.6,1.3-1.3,1.3
			C64.1,255.6,63.5,255,63.5,254.3z M63.5,290.6c0-0.7,0.6-1.3,1.3-1.3c0.7,0,1.3,0.6,1.3,1.3s-0.6,1.3-1.3,1.3
			C64.1,291.9,63.5,291.3,63.5,290.6z"/>
		<path d="M18.6,261.1v21.5h41.3v-21.5H44v-16.2H32.3v16.2H18.6z M23.3,279.1c0,0.7-0.6,1.3-1.3,1.3c-0.7,0-1.3-0.6-1.3-1.3
			s0.6-1.3,1.3-1.3S23.3,278.4,23.3,279.1z M23.3,264.5c0,0.7-0.6,1.3-1.3,1.3c-0.7,0-1.3-0.6-1.3-1.3s0.6-1.3,1.3-1.3
			C22.8,263.2,23.3,263.8,23.3,264.5z"/>
		<path d="M78.4,162.4v-17.7H41.7v17.7H78.4z M44,147.4c0-0.7,0.6-1.3,1.3-1.3s1.3,0.6,1.3,1.3s-0.6,1.3-1.3,1.3
			C44.6,148.7,44,148.1,44,147.4z M44,159.1c0-0.7,0.6-1.3,1.3-1.3s1.3,0.6,1.3,1.3s-0.6,1.3-1.3,1.3S44,159.8,44,159.1z"/>
		<path d="M18.6,525.6h41.3v-21.5H18.6V525.6z M23.3,522.5c0,0.7-0.6,1.3-1.3,1.3c-0.7,0-1.3-0.6-1.3-1.3c0-0.7,0.6-1.3,1.3-1.3
			S23.3,521.8,23.3,522.5z M23.3,507c0,0.7-0.6,1.3-1.3,1.3c-0.7,0-1.3-0.6-1.3-1.3s0.6-1.3,1.3-1.3S23.3,506.3,23.3,507z"/>
		<path d="M59.9,345.6H18.6v21.5h41.3C59.9,367.1,59.9,345.6,59.9,345.6z M20.8,349.1c0-0.7,0.6-1.3,1.3-1.3c0.7,0,1.3,0.6,1.3,1.3
			s-0.6,1.3-1.3,1.3S20.8,349.8,20.8,349.1z M20.8,363.7c0-0.7,0.6-1.3,1.3-1.3c0.7,0,1.3,0.6,1.3,1.3s-0.6,1.3-1.3,1.3
			S20.8,364.4,20.8,363.7z"/>
		<path d="M59.9,327.9v-17.8H18.6v17.8H59.9z M20.8,313.5c0-0.7,0.6-1.3,1.3-1.3c0.7,0,1.3,0.6,1.3,1.3s-0.6,1.3-1.3,1.3
			S20.8,314.2,20.8,313.5z M20.8,324.3c0-0.7,0.6-1.3,1.3-1.3c0.7,0,1.3,0.6,1.3,1.3s-0.6,1.3-1.3,1.3S20.8,325,20.8,324.3z"/>
		<path d="M59.9,182.1H18.6v21.5h41.3C59.9,203.6,59.9,182.1,59.9,182.1z M20.8,185.5c0-0.7,0.6-1.3,1.3-1.3c0.7,0,1.3,0.6,1.3,1.3
			s-0.6,1.3-1.3,1.3C21.3,186.7,20.8,186.2,20.8,185.5z M20.8,200.5c0-0.7,0.6-1.3,1.3-1.3c0.7,0,1.3,0.6,1.3,1.3s-0.6,1.3-1.3,1.3
			S20.8,201.2,20.8,200.5z"/>
		<path d="M61.7,594.3v20.4l0,0v21.5l16.8-21.5v-20.4l-16.7-21.5L61.7,594.3L61.7,594.3z M66,626c0,0.7-0.6,1.3-1.3,1.3
			c-0.7,0-1.3-0.6-1.3-1.3c0-0.7,0.6-1.3,1.3-1.3C65.5,624.7,66,625.3,66,626z M63.5,582.3c0-0.7,0.6-1.3,1.3-1.3
			c0.7,0,1.3,0.6,1.3,1.3c0,0.7-0.6,1.3-1.3,1.3C64.1,583.6,63.5,583,63.5,582.3z"/>
		<path d="M0.1,594.3v20.4l0,0l16.6,21.5v-21.5l0,0v-20.4l0,0v-21.5L0.1,594.3L0.1,594.3z M4.3,613.4c0,0.7-0.6,1.3-1.3,1.3
			s-1.3-0.6-1.3-1.3c0-0.7,0.6-1.3,1.3-1.3C3.7,612.1,4.3,612.7,4.3,613.4z M4.3,595.6c0,0.7-0.6,1.3-1.3,1.3s-1.3-0.6-1.3-1.3
			c0-0.7,0.6-1.3,1.3-1.3C3.7,594.3,4.3,594.9,4.3,595.6z"/>
		<path d="M16.7,665.7h15.6h5.9l-5.9-21.9l0,0H16.7L0,665.7H16.7z M5.1,662.6c0-0.7,0.6-1.3,1.3-1.3s1.3,0.6,1.3,1.3
			c0,0.7-0.6,1.3-1.3,1.3C5.6,663.9,5.1,663.3,5.1,662.6z"/>
		<path d="M16.7,243.1v-21.9L0,243.1h0V294h16.6V243.1L16.7,243.1z M4.3,290.6c0,0.7-0.6,1.3-1.3,1.3s-1.3-0.6-1.3-1.3
			s0.6-1.3,1.3-1.3S4.3,289.8,4.3,290.6z M4.3,244.9c0,0.7-0.6,1.3-1.3,1.3s-1.3-0.6-1.3-1.3s0.6-1.3,1.3-1.3S4.3,244.2,4.3,244.9z"
			/>
		<path d="M18.6,221.2v21.9h13.8h5.9l-5.9-21.9H18.6z M23.3,239.7c0,0.7-0.6,1.3-1.3,1.3s-1.3-0.6-1.3-1.3s0.6-1.3,1.3-1.3
			S23.3,239,23.3,239.7z M23.3,224.2c0,0.7-0.6,1.3-1.3,1.3s-1.3-0.6-1.3-1.3s0.6-1.3,1.3-1.3S23.3,223.5,23.3,224.2z"/>
		<path d="M61.7,665.7h16.7l-16.7-21.9H44l-5.8,21.9H44H61.7z M41.8,662.6c0-0.7,0.6-1.3,1.3-1.3s1.3,0.6,1.3,1.3
			c0,0.7-0.6,1.3-1.3,1.3C42.4,663.9,41.8,663.3,41.8,662.6z"/>
		<path d="M44,243.1h34.3v-21.9H44l-5.8,21.9H44z M42.1,239.7c0-0.7,0.6-1.3,1.3-1.3s1.3,0.6,1.3,1.3s-0.6,1.3-1.3,1.3
			C42.6,241,42.1,240.5,42.1,239.7z"/>
		<path d="M78.4,486.2l-16.8-21.5H16.7L0.1,486.2H78.4z M6.1,482.5c0-0.7,0.6-1.3,1.3-1.3s1.3,0.6,1.3,1.3s-0.6,1.3-1.3,1.3
			C6.7,483.8,6.1,483.2,6.1,482.5z"/>
		<path d="M32.3,403.4v-17.6H0.1v17.6H32.3z M1.8,388.8c0-0.7,0.6-1.3,1.3-1.3s1.3,0.6,1.3,1.3S3.7,390,3,390S1.8,389.5,1.8,388.8z
			 M1.8,400.1c0-0.7,0.6-1.3,1.3-1.3s1.3,0.6,1.3,1.3s-0.6,1.3-1.3,1.3C2.3,401.4,1.8,400.8,1.8,400.1z"/>
		<path d="M78.4,403.4v-17.6h-32v17.6H78.4z M48.9,388.8c0-0.7,0.6-1.3,1.3-1.3s1.3,0.6,1.3,1.3s-0.6,1.3-1.3,1.3
			C49.5,390,48.9,389.5,48.9,388.8z M48.9,400.1c0-0.7,0.6-1.3,1.3-1.3s1.3,0.6,1.3,1.3s-0.6,1.3-1.3,1.3
			C49.5,401.4,48.9,400.8,48.9,400.1z"/>
		<path d="M18.6,446.2h41.3v-21.5H46.4v-16.6H31.1v16.6H18.6V446.2z M23.3,443.2c0,0.7-0.6,1.3-1.3,1.3c-0.7,0-1.3-0.6-1.3-1.3
			s0.6-1.3,1.3-1.3S23.3,442.5,23.3,443.2z M23.3,427.7c0,0.7-0.6,1.3-1.3,1.3c-0.7,0-1.3-0.6-1.3-1.3s0.6-1.3,1.3-1.3
			S23.3,427,23.3,427.7z"/>
		<path d="M61.7,345.6v21.5l16.7-21.5v-17.7l-16.8-17.8v17.8L61.7,345.6L61.7,345.6z M66,357.5c0,0.7-0.6,1.3-1.3,1.3
			c-0.7,0-1.3-0.6-1.3-1.3s0.6-1.3,1.3-1.3C65.5,356.2,66,356.8,66,357.5z M63.5,319.2c0-0.7,0.6-1.3,1.3-1.3c0.7,0,1.3,0.6,1.3,1.3
			s-0.6,1.3-1.3,1.3C64.1,320.5,63.5,319.9,63.5,319.2z"/>
		<path d="M18.6,114.1v21.5h41.3v-21.5H18.6z M23.3,132c0,0.7-0.6,1.3-1.3,1.3c-0.7,0-1.3-0.6-1.3-1.3s0.6-1.3,1.3-1.3
			S23.3,131.3,23.3,132z M23.3,118.4c0,0.7-0.6,1.3-1.3,1.3c-0.7,0-1.3-0.6-1.3-1.3s0.6-1.3,1.3-1.3
			C22.8,117.2,23.3,117.7,23.3,118.4z"/>
		<path d="M59.9,93.7V72.2H18.6v21.5H59.9z M20.8,75.5c0-0.7,0.6-1.3,1.3-1.3c0.7,0,1.3,0.6,1.3,1.3s-0.6,1.3-1.3,1.3
			S20.8,76.2,20.8,75.5z M20.8,90.1c0-0.7,0.6-1.3,1.3-1.3c0.7,0,1.3,0.6,1.3,1.3s-0.6,1.3-1.3,1.3C21.3,91.3,20.8,90.8,20.8,90.1z"
			/>
		<path d="M61.7,93.7v20.4l0,0v21.5l16.8-21.5V93.7L61.7,72.2L61.7,93.7L61.7,93.7z M66,125.4c0,0.7-0.6,1.3-1.3,1.3
			c-0.7,0-1.3-0.6-1.3-1.3s0.6-1.3,1.3-1.3C65.5,124.1,66,124.7,66,125.4z M63.5,81.7c0-0.7,0.6-1.3,1.3-1.3c0.7,0,1.3,0.6,1.3,1.3
			S65.5,83,64.8,83C64.1,83,63.5,82.4,63.5,81.7z"/>
		<path d="M16.7,114.1V93.7l0,0V72.2L0.1,93.7l0,0v20.4l0,0l16.6,21.5V114.1L16.7,114.1z M1.8,95c0-0.7,0.6-1.3,1.3-1.3
			s1.3,0.6,1.3,1.3S3.7,96.3,3,96.3C2.3,96.3,1.8,95.7,1.8,95z M1.8,112.8c0-0.7,0.6-1.3,1.3-1.3s1.3,0.6,1.3,1.3s-0.6,1.3-1.3,1.3
			S1.8,113.5,1.8,112.8z"/>
		<path d="M18.6,41.9v21.5h41.3V41.9H18.6z M23.3,59.8c0,0.7-0.6,1.3-1.3,1.3c-0.7,0-1.3-0.6-1.3-1.3s0.6-1.3,1.3-1.3
			C22.8,58.5,23.3,59.1,23.3,59.8z M23.3,46.2c0,0.7-0.6,1.3-1.3,1.3c-0.7,0-1.3-0.6-1.3-1.3s0.6-1.3,1.3-1.3
			C22.8,44.9,23.3,45.5,23.3,46.2z"/>
		<path d="M59.9,21.5V0H18.6v21.5H59.9z M20.8,3.3c0-0.7,0.6-1.3,1.3-1.3c0.7,0,1.3,0.6,1.3,1.3s-0.6,1.3-1.3,1.3
			C21.3,4.6,20.8,4,20.8,3.3z M20.8,17.8c0-0.7,0.6-1.3,1.3-1.3c0.7,0,1.3,0.6,1.3,1.3s-0.6,1.3-1.3,1.3
			C21.3,19.1,20.8,18.5,20.8,17.8z"/>
		<path d="M61.7,21.5v20.4l0,0v21.5l16.8-21.5V21.5L61.7,0L61.7,21.5L61.7,21.5z M66,53.1c0,0.7-0.6,1.3-1.3,1.3
			c-0.7,0-1.3-0.6-1.3-1.3s0.6-1.3,1.3-1.3C65.5,51.9,66,52.4,66,53.1z M63.5,9.5c0-0.7,0.6-1.3,1.3-1.3c0.7,0,1.3,0.6,1.3,1.3
			s-0.6,1.3-1.3,1.3C64.1,10.7,63.5,10.2,63.5,9.5z"/>
		<path d="M16.7,41.9V21.5l0,0V0L0.1,21.5l0,0v20.4l0,0l16.6,21.5V41.9L16.7,41.9z M1.8,22.8c0-0.7,0.6-1.3,1.3-1.3s1.3,0.6,1.3,1.3
			S3.7,24.1,3,24.1S1.8,23.5,1.8,22.8z M1.8,40.6c0-0.7,0.6-1.3,1.3-1.3s1.3,0.6,1.3,1.3S3.7,41.9,3,41.9S1.8,41.3,1.8,40.6z"/>
		<path d="M78.4,716.6v-49.1H61.7v49.1H78.4z M63.5,670.9c0-0.7,0.6-1.3,1.3-1.3c0.7,0,1.3,0.6,1.3,1.3c0,0.7-0.6,1.3-1.3,1.3
			C64.1,672.1,63.5,671.6,63.5,670.9z M63.5,713.5c0-0.7,0.6-1.3,1.3-1.3c0.7,0,1.3,0.6,1.3,1.3c0,0.7-0.6,1.3-1.3,1.3
			C64.1,714.8,63.5,714.2,63.5,713.5z"/>
		<path d="M18.6,683.7v21.5h41.3v-21.5H44v-16.2H32.3v16.2H18.6z M23.3,702.2c0,0.7-0.6,1.3-1.3,1.3c-0.7,0-1.3-0.6-1.3-1.3
			c0-0.7,0.6-1.3,1.3-1.3S23.3,701.5,23.3,702.2z M23.3,686.8c0,0.7-0.6,1.3-1.3,1.3c-0.7,0-1.3-0.6-1.3-1.3c0-0.7,0.6-1.3,1.3-1.3
			C22.8,685.5,23.3,686.1,23.3,686.8z"/>
	</g>
</g>
<g id="Layer_2_00000150818484658632901830000015098172280736687508_">
</g>
</svg>
